# AST/ASF file generated using VICON BodyLanguage
# -----------------------------------------------
:version 1.10
:name VICON
:units
  mass 1.0
  length 0.45
  angle deg
:documentation
   .ast/.asf automatically generated from VICON data using
   VICON BodyBuilder and BodyLanguage model FoxedUp or BRILLIANT.MOD
:root
   order TX TY TZ RX RY RZ
   axis XYZ
   position 0 0 0  
   orientation 0 0 0 
:bonedata
  begin
     id 1 
     name lhipjoint
     direction 0.653368 -0.678499 0.335782 
     length 2.51848 
     axis 0 0 0  XYZ
  end
  begin
     id 2 
     name lfemur
     direction 0.34202 -0.939693 0  
     length 6.57749  
     axis 0 0 20  XYZ
    dof rx ry rz
    limits (-160.0 20.0)
           (-70.0 70.0)
           (-60.0 70.0)
  end
  begin
     id 3 
     name ltibia
     direction 0.34202 -0.939693 0   
     length 7.94618   
     axis 0 0 20   XYZ
    dof rx
    limits (-10.0 170.0)
  end
  begin
     id 4 
     name lfoot
     direction 0.0811271 -0.222895 0.971461   
     length 2.31339   
     axis -90 7.62852e-016 20   XYZ
    dof rx rz
    limits (-45.0 90.0)
           (-70.0 20.0)
  end
  begin
     id 5 
     name ltoes
     direction 1.53568e-011 -4.21885e-011 1   
     length 1.15935   
     axis -90 7.62852e-016 20   XYZ
    dof rx
    limits (-90.0 20.0)
  end
  begin
     id 6 
     name rhipjoint
     direction -0.640058 -0.688614 0.340788   
     length 2.48149  
     axis 0 0 0  XYZ 
  end
  begin
     id 7 
     name rfemur
     direction -0.34202 -0.939693 0   
     length 6.57875   
     axis 0 0 -20   XYZ
    dof rx ry rz
    limits (-160.0 20.0)
           (-70.0 70.0)
           (-70.0 60.0)
  end
  begin
     id 8 
     name rtibia
     direction -0.34202 -0.939693 0   
     length 7.977   
     axis 0 0 -20   XYZ
    dof rx
    limits (-10.0 170.0)
 end
 begin
     id 9 
     name rfoot
     direction -0.0979793 -0.269196 0.958089   
     length 2.19857  
     axis -90 -7.62852e-016 -20   XYZ
    dof rx rz
    limits (-45.0 90.0)
           (-20.0 70.0)
  end
  begin
     id 10 
     name rtoes
     direction -1.53556e-011 -4.21868e-011 1   
     length 1.09838   
     axis -90 -7.62852e-016 -20   XYZ
    dof rx
    limits (-90.0 20.0)
  end
  begin
     id 11 
     name lowerback
     direction 0.0149039 0.998517 -0.0523597   
     length 2.10809   
     axis 0 0 0   XYZ
    dof rx ry rz
    limits (-20.0 45.0)
           (-30.0 30.0)
           (-30.0 30.0)
  end
  begin
     id 12 
     name upperback
     direction -0.00882659 0.999418 -0.0329624   
     length 2.1102   
     axis 0 0 0   XYZ
    dof rx ry rz
    limits (-20.0 45.0)
           (-30.0 30.0)
           (-30.0 30.0)
  end
  begin
     id 13 
     name thorax
     direction -0.0165585 0.999826 -0.0085833   
     length 2.11039   
     axis 0 0 0   XYZ
    dof rx ry rz
    limits (-20.0 45.0)
           (-30.0 30.0)
           (-30.0 30.0)
  end
  begin
     id 14 
     name lowerneck
     direction -0.0130877 0.999911 0.00260353   
     length 1.73253   
     axis 0 0 0   XYZ
    dof rx ry rz
    limits (-20.0 45.0)
           (-30.0 30.0)
           (-30.0 30.0)
  end
  begin
     id 15 
     name upperneck
     direction -0.0348454 0.928205 -0.370435   
     length 1.66692   
     axis 0 0 0   XYZ
    dof rx ry rz
    limits (-20.0 45.0)
           (-30.0 30.0)
           (-30.0 30.0)
  end
  begin
     id 16
     name head
     direction -0.00807754 0.992494 -0.122026  
     length 1.72765  
     axis 0 0 0   XYZ
    dof rx ry rz
    limits (-20.0 45.0)
           (-30.0 30.0)
           (-30.0 30.0)
  end
  begin
     id 17 
     name lclavicle
     direction 0.987582 0.144023 0.0627671  
     length 3.49235  
     axis 0 0 0   XYZ
    dof ry rz
    limits (-20.0 10.0)
           (0.0 20.0)
  end
  begin
     id 18 
     name lhumerus
     direction 1 -4.48958e-011 -1.45183e-018   
     length 5.41917   
     axis 180 -30 -90   XYZ
    dof rx ry rz
    limits (-60.0 90.0)
           (-90.0 90.0)
           (-90.0 90.0)
  end
  begin
     id 19
     name lradius
     direction 1 -4.48999e-011 5.75106e-027   
     length 2.44373   
     axis 180 -30 -90   XYZ
    dof rx
    limits (-10.0 170.0)
  end
  begin
     id 20
     name lwrist
     direction 1 -4.48987e-011 1.53461e-026   
     length 1.22186   
     axis -1.09697e-014 90 90   XYZ
    dof ry
    limits (-180.0 0.0)
 end
  begin
     id 21 
     name lhand
     direction 1 -4.48881e-011 3.06923e-026   
     length 0.727502   
     axis -1.95843e-014 90 90   XYZ
    dof rx rz
    limits (-90.0 90.0)
           (-45.0 45.0)
  end
  begin
     id 22 
     name lfingers
     direction 1 -4.48907e-011 6.13845e-026   
     length 0.586531   
     axis -3.91686e-014 90 90   XYZ
    dof rx
    limits (0.0 90.0)
  end
  begin
     id 23
     name lthumb
     direction 0.707107 -6.3487e-011 0.707107   
     length 0.842145   
     axis -90 45 2.85299e-015   XYZ
    dof rx rz
    limits (-45.0 45.0)
           (-45.0 45.0)
  end
  begin
     id 24 
     name rclavicle
     direction -0.980998 0.169556 0.0943023   
     length 3.29272  
     axis 0 0 0   XYZ 
    dof ry rz
    limits (-10.0 20.0)
           (-20.0 0.0)
  end
  begin
     id 25 
     name rhumerus
     direction -1 -1.83355e-005 2.45537e-005  
     length 5.58976   
     axis 180 30 90   XYZ
    dof rx ry rz
    limits (-90.0 60.0)
           (-90.0 90.0)
           (-90.0 90.0)
  end
  begin
     id 26 
     name rradius
     direction -1 -4.48967e-011 5.97228e-027   
     length 2.4806   
     axis 180 30 90   XYZ
    dof rx
    limits (-10.0 170.0)
  end
  begin
     id 27 
     name rwrist
     direction -1 -4.48963e-011 1.53461e-026   
     length 1.2403   
     axis -1.09697e-014 -90 -90   XYZ
    dof ry
    limits (-180.0 0.0)
  end
  begin
     id 28
     name rhand
     direction -1 -4.48881e-011 3.06923e-026   
     length 0.816009   
     axis -1.95843e-014 -90 -90   XYZ
    dof rx rz
    limits (-90.0 90.0)
           (-45.0 45.0)
  end
  begin
     id 29
     name rfingers
     direction -1 -4.49018e-011 6.13845e-026   
     length 0.657887   
     axis -3.91686e-014 -90 -90   XYZ
    dof rx
    limits (0.0 90.0)
  end
  begin
     id 30
     name rthumb
     direction -0.707107 -6.34872e-011 0.707107   
     length 0.944599   
     axis -90 -45 -2.85299e-015   XYZ
    dof rx rz
    limits (-45.0 45.0)
           (-45.0 45.0)
  end
:hierarchy
  begin
    root lhipjoint rhipjoint lowerback
    lhipjoint lfemur
    lfemur ltibia
    ltibia lfoot
    lfoot ltoes
    rhipjoint rfemur
    rfemur rtibia
    rtibia rfoot
    rfoot rtoes
    lowerback upperback
    upperback thorax
    thorax lowerneck lclavicle rclavicle
    lowerneck upperneck
    upperneck head
    lclavicle lhumerus
    lhumerus lradius
    lradius lwrist
    lwrist lhand lthumb
    lhand lfingers
    rclavicle rhumerus
    rhumerus rradius
    rradius rwrist
    rwrist rhand rthumb
    rhand rfingers
  end

#!OML:ASF F:\VICON\USERDATA\INSTALL\rory3\rory3.ASF
:FULLY-SPECIFIED
:DEGREES
143
root 0.553765 16.3696 -13.5304 31.608 -2.93627 -3.19691
lowerback -14.2157 -0.282074 -0.773573
upperback -10.8937 -0.296081 1.76645
thorax -3.54994 -0.049513 2.25601
lowerneck -21.5189 -10.0529 -10.0863
upperneck 17.9014 -9.74351 -3.71536
head 9.52786 -5.65733 -1.128
rclavicle -2.59662e-015 -1.19768e-014
rhumerus -52.5807 7.9558 -85.5236
rradius 18.2724
rwrist -8.74249
rhand -1.64667 17.7258
rfingers 7.12502
rthumb 24.0122 -10.7922
lclavicle -2.59662e-015 -1.19768e-014
lhumerus -54.0307 5.18028 76.3011
lradius 48.3077
lwrist 5.84251
lhand 2.8481 17.4782
lfingers 7.12502
lthumb 28.3154 45.3576
rfemur -25.7558 -5.00625 32.2716
rtibia 45.5262
rfoot 28.955 -23.5879
rtoes 20.0713
lfemur -53.0378 3.99704 -33.3836
ltibia 40.4125
lfoot -45.1712 29.5263
ltoes 12.8497
144
root 0.557419 16.3688 -13.5365 31.4386 -2.90798 -3.19016
lowerback -14.0639 -0.291558 -0.623941
upperback -10.6656 -0.326297 1.7307
thorax -3.38107 -0.0776933 2.12935
lowerneck -21.3048 -10.111 -10.1349
upperneck 16.7666 -9.79447 -4.03696
head 9.07786 -5.69025 -1.18453
rclavicle 1.64153e-015 1.63997e-014
rhumerus -52.601 8.16896 -85.9465
rradius 18.5757
rwrist -9.74804
rhand -2.64822 17.837
rfingers 7.12502
rthumb 23.0515 -10.8043
lclavicle 1.64153e-015 1.63997e-014
lhumerus -53.9044 4.82873 76.5021
lradius 48.5615
lwrist 6.0703
lhand 2.72247 17.0849
lfingers 7.12502
lthumb 28.1953 44.9842
rfemur -25.6223 -5.10356 32.2367
rtibia 45.5799
rfoot 27.1805 -23.2606
rtoes 17.5648
lfemur -52.8933 4.23393 -33.5095
ltibia 40.3887
lfoot -44.4896 29.2768
ltoes 13.5494
145
root 0.562212 16.3706 -13.5401 31.3596 -2.76273 -3.29024
lowerback -13.8194 -0.289616 -0.316588
upperback -10.6309 -0.354391 1.71874
thorax -3.4725 -0.109545 1.94125
lowerneck -20.888 -10.1218 -10.159
upperneck 15.8362 -9.82296 -4.35165
head 8.66926 -5.71254 -1.23447
rclavicle -4.61243e-015 2.18663e-015
rhumerus -52.7486 8.26008 -86.2954
rradius 18.5401
rwrist -10.5753
rhand -3.74576 18.0743
rfingers 7.12502
rthumb 21.9981 -10.6948
lclavicle -4.61243e-015 2.18663e-015
lhumerus -53.9192 4.2526 76.7977
lradius 48.592
lwrist 6.62316
lhand 2.65917 17.4325
lfingers 7.12502
lthumb 28.1348 45.3418
rfemur -25.6223 -5.29789 32.3815
rtibia 45.6376
rfoot 28.8423 -22.4767
rtoes 16.2486
lfemur -52.7791 4.39138 -33.487
ltibia 40.3695
lfoot -44.6634 29.1533
ltoes 13.325
146
root 0.560887 16.3712 -13.5417 31.2691 -2.81535 -3.13452
lowerback -13.6524 -0.288876 -0.453263
upperback -10.54 -0.340248 1.66496
thorax -3.46297 -0.0969138 1.96293
lowerneck -20.7954 -10.1149 -10.1882
upperneck 15.2521 -9.76544 -4.70932
head 8.43517 -5.70753 -1.31461
rclavicle 4.62796e-015 -7.05686e-015
rhumerus -52.811 8.25619 -86.4905
rradius 18.5528
rwrist -11.2919
rhand -4.74148 18.5456
rfingers 7.12502
rthumb 21.0418 -10.3328
lclavicle 4.62796e-015 -7.05686e-015
lhumerus -53.8807 3.75796 77.1493
lradius 48.6317
lwrist 7.06466
lhand 2.67211 17.6988
lfingers 7.12502
lthumb 28.1472 45.606
rfemur -25.6024 -5.31472 32.2003
rtibia 45.708
rfoot 28.4703 -22.223
rtoes 14.7033
lfemur -52.6657 4.66967 -33.8182
ltibia 40.3601
lfoot -44.7854 28.9464
ltoes 12.9663
147
root 0.558022 16.3683 -13.5442 31.111 -2.90753 -3.02722
lowerback -13.5006 -0.270381 -0.58154
upperback -10.3595 -0.304192 1.63347
thorax -3.34964 -0.0741607 2.00476
lowerneck -20.7866 -10.0336 -10.1633
upperneck 14.5273 -9.61927 -5.08245
head 8.1628 -5.65308 -1.39312
rclavicle -8.2449e-015 -8.54774e-015
rhumerus -52.7793 8.1846 -86.5794
rradius 18.6737
rwrist -12.1088
rhand -5.45998 19.0135
rfingers 7.12502
rthumb 20.3514 -9.94017
lclavicle -8.2449e-015 -8.54774e-015
lhumerus -53.7119 3.43675 77.4373
lradius 48.5365
lwrist 7.42494
lhand 2.60956 17.5229
lfingers 7.12502
lthumb 28.0874 45.44
rfemur -25.4447 -5.18644 32.0347
rtibia 45.7575
rfoot 28.4633 -22.8626
rtoes 16.4893
lfemur -52.5512 4.82437 -33.9803
ltibia 40.3872
lfoot -44.547 28.7251
ltoes 13.6768
148
root 0.559894 16.3634 -13.5472 31.0817 -2.9005 -3.09925
lowerback -13.3517 -0.208443 -0.439862
upperback -10.3711 -0.234598 1.64426
thorax -3.44433 -0.0456347 1.94386
lowerneck -20.1299 -9.91488 -10.2332
upperneck 13.5591 -9.53143 -5.3303
head 7.71626 -5.60368 -1.38222
rclavicle -1.05402e-014 2.98177e-016
rhumerus -53.0918 8.09548 -86.6294
rradius 18.8452
rwrist -12.932
rhand -6.05725 19.2416
rfingers 7.12502
rthumb 19.7773 -9.77225
lclavicle -1.05402e-014 2.98177e-016
lhumerus -53.8395 3.03738 77.7261
lradius 48.4105
lwrist 7.91383
lhand 2.54273 17.4135
lfingers 7.12502
lthumb 28.0235 45.341
rfemur -25.4329 -5.08377 32.0972
rtibia 45.821
rfoot 28.6308 -23.0181
rtoes 16.4339
lfemur -52.5681 4.83552 -33.8956
ltibia 40.4167
lfoot -44.4945 28.5205
ltoes 14.2823
